<svg width="24" height="25" viewBox="0 0 24 25" fill="none" xmlns="http://www.w3.org/2000/svg">
<g clip-path="url(#clip0_297_153)">
<path d="M24 12.5631C24 19.1905 18.6274 24.5631 12 24.5631V24.5631C5.37258 24.5631 4.69686e-07 19.1905 1.04907e-06 12.5631V12.5631C1.62846e-06 5.93569 5.37259 0.563109 12 0.563109V0.563109C18.6274 0.56311 24 5.93569 24 12.5631V12.5631Z" fill="white"/>
<path d="M12 20.5631L13.41 19.1531L7.83 13.5631L20 13.5631L20 11.5631L7.83 11.5631L13.41 5.97311L12 4.56311L4 12.5631L12 20.5631Z" fill="#E09043"/>
</g>
<defs>
<clipPath id="clip0_297_153">
<rect width="24" height="24" fill="white" transform="translate(24 24.5631) rotate(-180)"/>
</clipPath>
</defs>
</svg>
